<svg xmlns="http://www.w3.org/2000/svg" x="0px" y="0px"
width="50" height="50"
viewBox="0 0 172 172"
style=" fill:#000000;"><g fill="none" fill-rule="nonzero" stroke="none" stroke-width="1" stroke-linecap="butt" stroke-linejoin="miter" stroke-miterlimit="10" stroke-dasharray="" stroke-dashoffset="0" font-family="none" font-weight="none" font-size="none" text-anchor="none" style="mix-blend-mode: normal"><path d="M0,172v-172h172v172z" fill="none"></path><g fill="#3DD685"><path d="M56.0075,0.1075c-0.44344,0.08062 -0.90031,0.16125 -1.29,0.43c-1.57219,1.06156 -1.92156,3.26531 -0.86,4.8375l7.4175,11.0725c-11.46219,6.07375 -20.00844,16.16531 -22.79,28.2725h95.03c-2.78156,-12.10719 -11.32781,-22.19875 -22.79,-28.2725l7.4175,-11.0725c1.06156,-1.57219 0.71219,-3.77594 -0.86,-4.8375c-1.58562,-1.06156 -3.77594,-0.60469 -4.8375,0.9675l-8.17,12.04c-5.67062,-2.06937 -11.825,-3.225 -18.275,-3.225c-6.45,0 -12.60437,1.15563 -18.275,3.225l-8.17,-12.04c-0.79281,-1.1825 -2.23062,-1.65281 -3.5475,-1.3975zM67.08,27.52c2.84875,0 5.16,2.31125 5.16,5.16c0,2.86219 -2.31125,5.16 -5.16,5.16c-2.86219,0 -5.16,-2.29781 -5.16,-5.16c0,-2.84875 2.29781,-5.16 5.16,-5.16zM104.92,27.52c2.86219,0 5.16,2.31125 5.16,5.16c0,2.86219 -2.29781,5.16 -5.16,5.16c-2.84875,0 -5.16,-2.29781 -5.16,-5.16c0,-2.84875 2.31125,-5.16 5.16,-5.16zM27.52,51.6c-5.6975,0 -10.32,4.6225 -10.32,10.32v48.16c0,5.6975 4.6225,10.32 10.32,10.32c1.20938,0 2.365,-0.25531 3.44,-0.645v-67.51c-1.075,-0.38969 -2.23062,-0.645 -3.44,-0.645zM37.84,51.6v75.68c0,5.68406 4.63594,10.32 10.32,10.32h75.68c5.68406,0 10.32,-4.63594 10.32,-10.32v-75.68zM144.48,51.6c-1.20937,0 -2.365,0.25531 -3.44,0.645v67.51c1.075,0.37625 2.23063,0.645 3.44,0.645c5.6975,0 10.32,-4.6225 10.32,-10.32v-48.16c0,-5.6975 -4.6225,-10.32 -10.32,-10.32zM51.6,144.48v13.76c0,7.59219 6.16781,13.76 13.76,13.76c7.59219,0 13.76,-6.16781 13.76,-13.76v-13.76zM92.88,144.48v13.76c0,7.59219 6.16781,13.76 13.76,13.76c7.59219,0 13.76,-6.16781 13.76,-13.76v-13.76z"></path></g></g></svg>